<svg width="17" height="17" viewBox="0 0 17 17" fill="none" xmlns="http://www.w3.org/2000/svg">
<path d="M6.15 1.5V7.7C6.15 8.09783 5.99197 8.47936 5.71066 8.76066C5.42936 9.04196 5.04782 9.2 4.65 9.2H1.5C1.10218 9.2 0.720645 9.04196 0.43934 8.76066C0.158036 8.47936 0 8.09783 0 7.7V1.5C0 1.10218 0.158036 0.720645 0.43934 0.43934C0.720645 0.158036 1.10218 0 1.5 0H4.65C5.04782 0 5.42936 0.158036 5.71066 0.43934C5.99197 0.720645 6.15 1.10218 6.15 1.5ZM4.65 10.34H1.5C1.10218 10.34 0.720645 10.498 0.43934 10.7793C0.158036 11.0606 0 11.4422 0 11.84V15.14C0 15.5378 0.158036 15.9194 0.43934 16.2007C0.720645 16.482 1.10218 16.64 1.5 16.64H4.65C5.04782 16.64 5.42936 16.482 5.71066 16.2007C5.99197 15.9194 6.15 15.5378 6.15 15.14V11.84C6.15 11.4422 5.99197 11.0606 5.71066 10.7793C5.42936 10.498 5.04782 10.34 4.65 10.34ZM15.14 6.65H8.79C8.39218 6.65 8.01064 6.80804 7.72934 7.08934C7.44804 7.37064 7.29 7.75217 7.29 8.15V15.14C7.29 15.5378 7.44804 15.9194 7.72934 16.2007C8.01064 16.482 8.39218 16.64 8.79 16.64H15.14C15.5378 16.64 15.9194 16.482 16.2007 16.2007C16.482 15.9194 16.64 15.5378 16.64 15.14V8.15C16.64 7.75217 16.482 7.37064 16.2007 7.08934C15.9194 6.80804 15.5378 6.65 15.14 6.65ZM15.14 0H8.79C8.39218 0 8.01064 0.158036 7.72934 0.43934C7.44804 0.720645 7.29 1.10218 7.29 1.5V4.01C7.29 4.40782 7.44804 4.78936 7.72934 5.07066C8.01064 5.35196 8.39218 5.51 8.79 5.51H15.14C15.5378 5.51 15.9194 5.35196 16.2007 5.07066C16.482 4.78936 16.64 4.40782 16.64 4.01V1.5C16.64 1.10218 16.482 0.720645 16.2007 0.43934C15.9194 0.158036 15.5378 0 15.14 0Z" fill="white"/>
</svg>
