<svg width="80" height="80" viewBox="0 0 242 193" fill="none" xmlns="http://www.w3.org/2000/svg">
<path d="M120.548 72.3103C140.468 72.3103 156.725 56.1272 156.725 36.1552C156.725 16.2473 140.532 0 120.548 0C100.564 0 84.3706 16.1831 84.3706 36.1552C84.3706 56.1272 100.564 72.3103 120.548 72.3103Z" fill="white"/>
<path d="M241.031 144.492C241.031 125.548 229.914 109.3 213.979 101.401C223.039 94.8511 228.951 84.255 228.951 72.2461C228.951 52.3383 212.758 36.0909 192.773 36.0909C172.789 36.0909 156.596 52.2741 156.596 72.2461C156.596 84.1908 162.508 94.7227 171.504 101.337C169.384 102.365 167.392 103.585 165.464 104.869C154.412 92.3466 138.411 84.255 120.483 84.255C102.491 84.255 86.5553 92.2824 75.5029 104.805C73.5752 103.456 71.5832 102.3 69.4627 101.273C78.4588 94.7227 84.3063 84.1908 84.3063 72.2461C84.3063 52.3383 68.1133 36.0909 48.1291 36.0909C28.1449 36.0909 12.0162 52.2741 12.0162 72.2461C12.0162 84.255 17.9922 94.8511 26.9883 101.401C11.0523 109.236 0 125.548 0 144.428V156.501H60.2096V192.72H180.693V156.565H240.967V144.492H241.031Z" fill="white"/>
</svg>
