<svg width="30" height="30" viewBox="0 0 100 100" fill="none" xmlns="http://www.w3.org/2000/svg">
<path d="M0 49.713C0.009 77.17 22.251 99.413 49.711 99.422C77.17 99.413 99.413 77.17 99.425 49.713C99.413 22.251 77.17 0.009 49.712 0C22.251 0.009 0.009 22.251 0 49.711M66.266 9.689C76.869 14.081 85.344 22.558 89.736 33.159L70.339 37.318C68.303 33.956 65.473 31.123 62.108 29.092L66.266 9.689ZM33.161 9.688L37.323 29.091C33.953 31.122 31.123 33.955 29.087 37.318L9.69 33.159C14.081 22.557 22.557 14.077 33.161 9.688ZM33.164 89.736C22.557 85.346 14.081 76.866 9.689 66.26L29.086 62.102C31.122 65.468 33.952 68.301 37.322 70.332L33.164 89.736ZM49.706 67.4C39.95 67.384 32.041 59.476 32.021 49.711C32.041 39.943 39.95 32.038 49.716 32.022C59.475 32.039 67.383 39.949 67.404 49.717C67.384 59.476 59.476 67.385 49.706 67.4ZM66.264 89.735L62.102 70.33C65.472 68.297 68.302 65.466 70.338 62.102L89.735 66.26C85.344 76.864 76.868 85.344 66.264 89.735Z" fill="white"/>
</svg>
