<svg width="86" height="124" viewBox="0 0 86 124" fill="none" xmlns="http://www.w3.org/2000/svg">
<path d="M21.9001 10.8333C20.9001 10.8333 20.1001 11.6333 20.1001 12.6333V23.3333C20.1001 24.3333 20.9001 25.1333 21.9001 25.1333H62.9001C63.9001 25.1333 64.7001 24.3333 64.7001 23.3333V12.5333C64.7001 11.5333 63.9001 10.7333 62.9001 10.7333H51.9001C51.0001 10.7333 50.2001 9.93333 50.3001 8.93333C50.5001 7.63333 50.2001 6.03333 49.5001 4.53333C48.1001 2.03333 45.6001 0.333333 42.9001 0.0333333C40.6001 -0.166667 38.4001 0.533333 36.7001 2.13333C35.0001 3.73333 34.0001 5.93333 34.0001 8.23333C34.0001 9.33333 33.9001 10.7333 32.4001 10.7333H21.9001V10.8333Z" fill="black"/>
<path d="M80.8 14.9333H67.8V21.1334H78C78.9 21.1334 79.6 21.8334 79.6 22.7334V116.333C79.6 117.233 78.9 117.933 78 117.933H7.1C6.2 117.933 5.5 117.233 5.5 116.333V22.7334C5.5 21.8334 6.2 21.1334 7.1 21.1334H17V14.9333H4.2C1.8 14.9333 0 16.8334 0 19.1334V119.733C0 122.133 1.9 123.933 4.2 123.933H80.7C83.1 123.933 85 122.033 85 119.733V19.2334C85.1 16.8334 83.2 14.9333 80.8 14.9333Z" fill="black"/>
<path d="M67.7001 24.2334C67.2001 26.4334 65.2001 28.1334 62.9001 28.1334H21.9001C19.6001 28.1334 17.6001 26.4334 17.1001 24.2334H8.6001V114.733H76.4001V24.2334H67.7001ZM66.1001 105.233H19.0001C18.1001 105.233 17.4001 104.533 17.4001 103.633C17.4001 102.733 18.1001 102.033 19.0001 102.033H66.1001C67.0001 102.033 67.7001 102.733 67.7001 103.633C67.7001 104.533 66.9001 105.233 66.1001 105.233ZM66.1001 93.8334H19.0001C18.1001 93.8334 17.4001 93.1334 17.4001 92.2334C17.4001 91.3334 18.1001 90.6334 19.0001 90.6334H66.1001C67.0001 90.6334 67.7001 91.3334 67.7001 92.2334C67.6001 93.1334 66.9001 93.8334 66.1001 93.8334ZM66.1001 82.4334H19.0001C18.1001 82.4334 17.4001 81.7334 17.4001 80.8334C17.4001 79.9334 18.1001 79.2334 19.0001 79.2334H66.1001C67.0001 79.2334 67.7001 79.9334 67.7001 80.8334C67.7001 81.7334 66.9001 82.4334 66.1001 82.4334ZM66.1001 71.0334H19.0001C18.1001 71.0334 17.4001 70.3334 17.4001 69.4334C17.4001 68.5334 18.1001 67.8334 19.0001 67.8334H66.1001C67.0001 67.8334 67.7001 68.5334 67.7001 69.4334C67.6001 70.3334 66.9001 71.0334 66.1001 71.0334ZM66.1001 59.6334H19.0001C18.1001 59.6334 17.4001 58.9334 17.4001 58.0334C17.4001 57.1334 18.1001 56.4334 19.0001 56.4334H66.1001C67.0001 56.4334 67.7001 57.1334 67.7001 58.0334C67.6001 58.9334 66.9001 59.6334 66.1001 59.6334ZM66.1001 48.2334H19.0001C18.1001 48.2334 17.4001 47.5334 17.4001 46.6334C17.4001 45.7334 18.1001 45.0334 19.0001 45.0334H66.1001C67.0001 45.0334 67.7001 45.7334 67.7001 46.6334C67.6001 47.5334 66.9001 48.2334 66.1001 48.2334ZM66.1001 36.8334H19.0001C18.1001 36.8334 17.4001 36.1334 17.4001 35.2334C17.4001 34.3334 18.1001 33.6334 19.0001 33.6334H66.1001C67.0001 33.6334 67.7001 34.3334 67.7001 35.2334C67.6001 36.1334 66.9001 36.8334 66.1001 36.8334Z" fill="black"/>
</svg>
